General

Complete name                    : Clash.of.the.Titans.2010.avi
Format                           : AVI
File size                        : 1.37 GiB
Duration                         : 1h 41mn
Overall bit rate                 : 1 926 Kbps

Video
ID                               : 0
Format                           : MPEG-4 Visual
Codec ID/Hint                    : XviD
Duration                         : 1h 41mn
Bit rate                         : 1 531 Kbps
Width                            : 720 pixels
Height                           : 428 pixels
Display aspect ratio             : 2.35:1
Stream size                      : 1.09 GiB (79%)
Writing library                  : XviD 1.1.2 (UTC 2006-11-01)

Audio

Format                           : AC-3
Duration                         : 1h 41mn
Bit rate                         : 384 Kbps
Channel(s)                       : 6 channels
Channel positions                : Front: L C R, Side: L R, LFE
Sampling rate                    : 48.0 KHz
Stream size                      : 280 MiB (20%)



Subtitles: English Dutch French Greek Danish Finnish Norwegian Swedish 
